HIERARCHY
ROOT Hips
{
 OFFSET 0.000000 0.000000 0.000000
 CHANNELS 6 Xposition Yposition Zposition Yrotation Xrotation Zrotation
 JOINT Chest
 {
  OFFSET 0.000000 9.585900 0.002600
  CHANNELS 3 Yrotation Xrotation Zrotation
  JOINT Chest2
  {
   OFFSET 0.000000 9.601200 -0.005300
   CHANNELS 3 Yrotation Xrotation Zrotation
   JOINT Chest3
   {
    OFFSET 0.000000 9.561800 0.000000
    CHANNELS 3 Yrotation Xrotation Zrotation
    JOINT Chest4
    {
     OFFSET 0.000000 9.552100 0.000000
     CHANNELS 3 Yrotation Xrotation Zrotation
     JOINT Neck
     {
      OFFSET 0.000000 14.453000 0.000000
      CHANNELS 3 Yrotation Xrotation Zrotation
      JOINT Head
      {
       OFFSET 0.000000 8.936500 -0.011300
       CHANNELS 3 Yrotation Xrotation Zrotation
       End Site
       {
        OFFSET 0.000000 17.073600 -0.006000
       }
      }
     }
     JOINT RightCollar
     {
      OFFSET -2.921100 9.558500 0.000000
      CHANNELS 3 Yrotation Xrotation Zrotation
      JOINT RightShoulder
      {
       OFFSET -13.519700 0.000000 0.000000
       CHANNELS 3 Yrotation Xrotation Zrotation
       JOINT RightElbow
       {
        OFFSET 0.000000 -29.696600 0.000000
        CHANNELS 3 Yrotation Xrotation Zrotation
        JOINT RightWrist
        {
         OFFSET 0.000000 -24.004700 0.000000
         CHANNELS 3 Yrotation Xrotation Zrotation
         End Site
         {
          OFFSET 0.000000 -17.728500 0.000000
         }
        }
       }
      }
     }
     JOINT LeftCollar
     {
      OFFSET 2.921100 9.558500 0.000000
      CHANNELS 3 Yrotation Xrotation Zrotation
      JOINT LeftShoulder
      {
       OFFSET 13.519700 0.000000 0.000000
       CHANNELS 3 Yrotation Xrotation Zrotation
       JOINT LeftElbow
       {
        OFFSET 0.000000 -29.696600 0.000000
        CHANNELS 3 Yrotation Xrotation Zrotation
        JOINT LeftWrist
        {
         OFFSET 0.000000 -24.004700 0.000000
         CHANNELS 3 Yrotation Xrotation Zrotation
         End Site
         {
          OFFSET 0.000000 -17.728500 0.000000
         }
        }
       }
      }
     }
    }
   }
  }
 }
 JOINT RightHip
 {
  OFFSET -7.771700 -0.012900 -0.001300
  CHANNELS 3 Yrotation Xrotation Zrotation
  JOINT RightKnee
  {
   OFFSET 0.000000 -40.869800 0.001200
   CHANNELS 3 Yrotation Xrotation Zrotation
   JOINT RightAnkle
   {
    OFFSET 0.000000 -39.717900 0.002100
    CHANNELS 3 Yrotation Xrotation Zrotation
    JOINT RightToe
    {
     OFFSET 0.000000 -4.965400 11.033500
     CHANNELS 3 Yrotation Xrotation Zrotation
     End Site
     {
      OFFSET 0.000000 -1.423100 5.872300
     }
    }
   }
  }
 }
 JOINT LeftHip
 {
  OFFSET 7.771700 -0.012900 -0.001300
  CHANNELS 3 Yrotation Xrotation Zrotation
  JOINT LeftKnee
  {
   OFFSET 0.000000 -40.869800 0.001200
   CHANNELS 3 Yrotation Xrotation Zrotation
   JOINT LeftAnkle
   {
    OFFSET 0.000000 -39.717900 0.002100
    CHANNELS 3 Yrotation Xrotation Zrotation
    JOINT LeftToe
    {
     OFFSET 0.000000 -4.965400 11.033500
     CHANNELS 3 Yrotation Xrotation Zrotation
     End Site
     {
      OFFSET 0.000000 -1.423100 5.872300
     }
    }
   }
  }
 }
}
MOTION
Frames: 7
Frame Time: 0.008333
0.000000 85.388000 0.000000 0.000000 -5.767877 0.000000 0.000000 11.653817 0.000000 0.000000 -5.885947 0.000000 0.000000 -0.000000 0.000000 0.000000 -0.000000 0.000000 0.000000 12.528835 0.000000 0.000000 0.711642 0.000000 0.000000 -0.000000 0.000000 0.000000 0.000000 -90.000000 0.000000 -2.309062 0.000000 0.000000 2.309062 0.000000 0.000000 -0.000000 0.000000 0.000000 -0.000000 90.000000 0.000000 -2.309062 0.000000 0.000000 2.309062 0.000000 0.000000 8.520406 0.000000 0.000000 1.905762 0.000000 -0.000000 -4.658285 0.000000 0.000000 -0.000000 0.000000 0.000000 8.520406 0.000000 0.000000 1.905762 0.000000 -0.000000 -4.658285 0.000000 0.000000 -0.000000 0.000000
-245.540738 60.535821 -75.035188 157.354022 -29.649792 3.224612 5.078985 16.842969 0.717749 0.534660 1.826767 0.005722 0.893914 3.053711 0.024020 4.424765 14.784481 0.546411 0.894498 17.884419 -0.289621 1.029132 -6.860268 -0.515796 2.746615 7.516979 -3.431794 0.068623 -12.786427 -4.300227 -45.455174 -80.658809 56.506648 -0.682121 -0.381918 -37.754869 -6.268459 4.609738 -4.814309 17.341017 -6.609384 0.707100 -72.904228 -86.749824 60.105044 -7.973182 6.414453 6.130074 2.885733 -39.643700 1.684623 -21.824236 67.813718 -17.330821 -0.214703 -2.258371 -2.637691 -0.051335 -0.026927 -0.044648 14.086740 -39.501756 1.085268 24.987315 62.925346 23.901761 -16.625030 -10.131502 2.054913 0.076508 -0.071295 0.067408
-245.539263 60.535908 -75.040693 157.360671 -29.637700 3.230475 5.077278 16.858503 0.716386 0.540980 1.852707 0.013660 0.882207 3.006760 0.009650 4.440137 14.819913 0.555874 0.907423 17.911210 -0.295167 1.021686 -6.878314 -0.516520 2.753039 7.510616 -3.426403 0.079674 -12.803548 -4.310864 -45.516278 -80.659936 56.550057 -0.672555 -0.387067 -37.765729 -6.293534 4.584275 -4.820461 17.312288 -6.633933 0.723103 -72.788145 -86.765956 59.980356 -7.952580 6.386933 6.166249 2.890223 -39.664372 1.624471 -21.784961 67.860924 -17.236299 -0.197922 -2.276891 -2.671027 -0.054365 -0.029971 -0.041165 14.101129 -39.510782 1.075560 25.034807 62.920335 23.925043 -16.609554 -10.112920 2.069529 0.085929 -0.070341 0.065922
-245.540508 60.532786 -75.042058 157.364090 -29.586044 3.246946 5.084397 16.865529 0.713921 0.530868 1.809597 0.000163 0.885236 3.018890 0.013246 4.442940 14.820451 0.552154 0.913152 17.923396 -0.296136 1.027951 -6.864863 -0.518850 2.760082 7.512794 -3.417742 0.100159 -12.815677 -4.320000 -45.547349 -80.659002 56.562614 -0.668533 -0.384462 -37.769465 -6.311880 4.576976 -4.823437 17.283466 -6.656428 0.734615 -72.645949 -86.774616 59.854264 -7.945373 6.367036 6.175630 2.907736 -39.719956 1.582132 -21.765289 67.875018 -17.204999 -0.194141 -2.281130 -2.670896 -0.055936 -0.027397 -0.043016 14.133559 -39.554656 1.043479 25.030959 62.917492 23.913244 -16.641374 -10.093248 2.068152 0.086756 -0.065268 0.068865
-245.539914 60.532404 -75.048570 157.366907 -29.568753 3.269655 5.079012 16.865175 0.692688 0.530204 1.808866 -0.000114 0.889280 3.032339 0.016697 4.445190 14.822914 0.548271 0.918407 17.934606 -0.296351 1.033591 -6.852497 -0.520286 2.757790 7.497495 -3.415371 0.110362 -12.822245 -4.324197 -45.468366 -80.635013 56.507351 -0.664079 -0.399784 -37.785912 -6.334628 4.580257 -4.833693 17.233332 -6.692753 0.768653 -72.473226 -86.790177 59.679142 -7.927197 6.365830 6.233351 2.924372 -39.741896 1.526365 -21.738373 67.901552 -17.149741 -0.193555 -2.285896 -2.680130 -0.050551 -0.033995 -0.050743 14.159986 -39.563542 1.019726 25.041189 62.914435 23.912368 -16.758968 -10.064707 2.068103 0.042394 -0.073878 0.067882
-245.539608 60.530542 -75.052850 157.372838 -29.535712 3.291987 5.071983 16.849598 0.669063 0.539001 1.858134 0.012445 0.884802 2.998584 0.006944 4.442508 14.825020 0.544951 0.924792 17.946420 -0.296932 1.028550 -6.869242 -0.521567 2.756936 7.480266 -3.414606 0.120932 -12.829410 -4.328135 -45.403979 -80.624486 56.448291 -0.661491 -0.405607 -37.792266 -6.348906 4.571380 -4.842492 17.205667 -6.719702 0.781350 -72.352370 -86.794200 59.574202 -7.922187 6.359196 6.247019 2.937554 -39.781410 1.464599 -21.701600 67.932278 -17.082578 -0.186501 -2.297117 -2.703165 -0.050561 -0.035853 -0.049703 14.185490 -39.589318 0.982421 25.078650 62.908918 23.935672 -16.806470 -10.034943 2.073208 -0.011925 -0.097175 0.063095
-245.536157 60.528299 -75.055531 157.374618 -29.500603 3.300100 5.073822 16.848933 0.666348 0.537151 1.859088 0.012963 0.886937 2.997569 0.004953 4.438717 14.808882 0.538371 0.928303 17.952779 -0.297351 1.032228 -6.863663 -0.523517 2.771528 7.491119 -3.407955 0.138912 -12.842122 -4.333631 -45.398853 -80.629979 56.419774 -0.667464 -0.403538 -37.786306 -6.353851 4.574748 -4.848309 17.171552 -6.741757 0.793555 -72.222740 -86.799556 59.464617 -7.920331 6.354088 6.249646 2.937794 -39.822197 1.431273 -21.668235 67.958639 -17.020768 -0.183585 -2.307640 -2.728641 -0.047167 -0.038524 -0.051538 14.203836 -39.621666 0.970631 25.098581 62.904565 23.939599 -16.808013 -9.999104 2.079023 0.040293 -0.083656 0.054266
